<svg id="svg" version="1.1" xmlns="http://www.w3.org/2000/svg" width="400" height="400" viewBox="0, 0, 400,400"><g id="svgg"><path id="path0" d="M98.600 93.036 C 92.213 93.900,85.011 95.824,80.400 97.897 C 79.190 98.441,77.570 99.170,76.800 99.516 C 76.030 99.863,74.648 100.654,73.728 101.273 C 72.808 101.893,71.939 102.400,71.797 102.400 C 71.115 102.400,63.254 109.266,61.287 111.580 C 56.614 117.078,51.491 126.683,50.184 132.400 C 50.108 132.730,49.694 134.530,49.263 136.400 C 47.661 143.346,47.592 145.997,47.596 200.400 C 47.599 256.295,47.640 257.587,49.644 265.400 C 52.319 275.831,57.576 285.548,63.556 291.118 C 68.747 295.953,73.899 299.547,78.600 301.614 C 79.700 302.097,81.140 302.729,81.800 303.017 C 96.004 309.215,120.978 309.483,135.800 303.595 C 145.290 299.825,152.921 294.315,158.783 287.000 C 161.689 283.373,165.808 276.130,166.792 272.914 C 167.047 272.081,167.407 271.040,167.592 270.600 C 168.248 269.036,168.511 268.180,168.821 266.600 C 168.994 265.720,169.395 263.830,169.714 262.400 C 171.083 256.257,171.263 251.435,171.131 224.600 L 171.000 198.200 137.800 198.090 C 119.540 198.029,104.195 198.078,103.700 198.198 L 102.800 198.415 102.800 210.004 L 102.800 221.593 123.900 221.696 L 145.000 221.800 145.130 236.800 C 145.296 255.967,144.723 260.214,140.938 267.856 C 135.024 279.794,121.745 286.182,105.800 284.759 C 88.376 283.203,77.673 273.958,74.425 257.657 C 73.446 252.741,73.105 149.303,74.052 144.224 C 76.543 130.853,82.859 122.587,93.800 118.380 C 103.565 114.625,117.226 114.822,126.296 118.847 C 127.228 119.261,128.091 119.600,128.214 119.600 C 128.897 119.600,134.478 123.792,136.081 125.510 C 141.595 131.417,144.875 140.329,145.314 150.600 L 145.400 152.600 158.200 152.600 L 171.000 152.600 171.139 150.600 C 171.451 146.103,169.740 136.139,167.499 129.400 C 158.753 103.106,131.289 88.611,98.600 93.036 M221.385 95.700 C 221.281 95.975,221.241 143.180,221.298 200.600 L 221.400 305.000 233.973 305.106 C 243.765 305.188,246.617 305.100,246.867 304.706 C 247.043 304.428,247.191 284.985,247.194 261.500 L 247.200 218.800 271.393 218.800 C 296.890 218.800,298.198 218.725,307.800 216.702 C 325.964 212.875,341.912 199.313,348.372 182.200 C 348.870 180.880,349.427 179.440,349.609 179.000 C 354.013 168.346,353.577 145.515,348.723 132.615 C 345.132 123.071,338.629 114.054,331.429 108.635 C 328.705 106.585,322.206 102.400,321.745 102.400 C 321.638 102.400,320.436 101.874,319.075 101.231 C 313.262 98.484,305.909 96.578,298.000 95.769 C 290.491 95.001,221.674 94.939,221.385 95.700 M297.800 119.337 C 316.340 123.936,326.002 136.830,325.999 156.973 C 325.998 175.378,317.260 188.672,302.000 193.487 C 296.151 195.333,295.048 195.400,270.600 195.400 L 247.400 195.400 247.298 157.225 C 247.217 126.960,247.300 118.979,247.698 118.706 C 248.624 118.072,295.058 118.657,297.800 119.337 " stroke="none" fill="#fbfbfb" fill-rule="evenodd"></path><path id="path1" d="M30.300 0.290 C 29.475 0.377,28.800 0.617,28.800 0.824 C 28.800 1.031,28.271 1.200,27.624 1.200 C 26.977 1.200,26.336 1.380,26.200 1.600 C 26.064 1.820,25.513 2.000,24.976 2.000 C 24.439 2.000,24.000 2.180,24.000 2.400 C 24.000 2.620,23.640 2.800,23.200 2.800 C 22.760 2.800,22.400 2.980,22.400 3.200 C 22.400 3.420,22.040 3.600,21.600 3.600 C 21.160 3.600,20.800 3.780,20.800 4.000 C 20.800 4.220,20.440 4.400,20.000 4.400 C 19.560 4.400,19.200 4.580,19.200 4.800 C 19.200 5.020,18.912 5.200,18.560 5.200 C 18.209 5.200,17.417 5.740,16.800 6.400 C 16.183 7.060,15.476 7.600,15.229 7.600 C 14.244 7.600,7.600 14.244,7.600 15.229 C 7.600 15.476,7.060 16.183,6.400 16.800 C 5.740 17.417,5.200 18.209,5.200 18.560 C 5.200 18.912,5.020 19.200,4.800 19.200 C 4.580 19.200,4.400 19.560,4.400 20.000 C 4.400 20.440,4.220 20.800,4.000 20.800 C 3.780 20.800,3.600 21.160,3.600 21.600 C 3.600 22.040,3.420 22.400,3.200 22.400 C 2.980 22.400,2.800 22.760,2.800 23.200 C 2.800 23.640,2.620 24.000,2.400 24.000 C 2.180 24.000,2.000 24.439,2.000 24.976 C 2.000 25.513,1.820 26.064,1.600 26.200 C 1.380 26.336,1.200 26.962,1.200 27.590 C 1.200 28.219,0.975 28.808,0.700 28.900 C -0.036 29.145,-0.036 370.524,0.700 371.260 C 0.975 371.535,1.200 372.163,1.200 372.656 C 1.200 373.149,1.380 373.664,1.600 373.800 C 1.820 373.936,2.000 374.487,2.000 375.024 C 2.000 375.561,2.180 376.000,2.400 376.000 C 2.620 376.000,2.800 376.360,2.800 376.800 C 2.800 377.240,2.980 377.600,3.200 377.600 C 3.420 377.600,3.600 377.960,3.600 378.400 C 3.600 378.840,3.780 379.200,4.000 379.200 C 4.220 379.200,4.400 379.560,4.400 380.000 C 4.400 380.440,4.580 380.800,4.800 380.800 C 5.020 380.800,5.200 381.088,5.200 381.440 C 5.200 381.791,5.740 382.583,6.400 383.200 C 7.060 383.817,7.600 384.524,7.600 384.771 C 7.600 385.756,14.244 392.400,15.229 392.400 C 15.476 392.400,16.183 392.940,16.800 393.600 C 17.417 394.260,18.209 394.800,18.560 394.800 C 18.912 394.800,19.200 394.980,19.200 395.200 C 19.200 395.420,19.560 395.600,20.000 395.600 C 20.440 395.600,20.800 395.780,20.800 396.000 C 20.800 396.220,21.160 396.400,21.600 396.400 C 22.040 396.400,22.400 396.580,22.400 396.800 C 22.400 397.020,22.760 397.200,23.200 397.200 C 23.640 397.200,24.000 397.380,24.000 397.600 C 24.000 397.820,24.439 398.000,24.976 398.000 C 25.513 398.000,26.064 398.180,26.200 398.400 C 26.336 398.620,26.962 398.800,27.590 398.800 C 28.219 398.800,28.808 399.025,28.900 399.300 C 29.145 400.036,370.524 400.036,371.260 399.300 C 371.535 399.025,372.163 398.800,372.656 398.800 C 373.149 398.800,373.664 398.620,373.800 398.400 C 373.936 398.180,374.487 398.000,375.024 398.000 C 375.561 398.000,376.000 397.820,376.000 397.600 C 376.000 397.380,376.360 397.200,376.800 397.200 C 377.240 397.200,377.600 397.020,377.600 396.800 C 377.600 396.580,377.960 396.400,378.400 396.400 C 378.840 396.400,379.200 396.220,379.200 396.000 C 379.200 395.780,379.560 395.600,380.000 395.600 C 380.440 395.600,380.800 395.420,380.800 395.200 C 380.800 394.980,381.088 394.800,381.440 394.800 C 381.791 394.800,382.583 394.260,383.200 393.600 C 383.817 392.940,384.524 392.400,384.771 392.400 C 385.192 392.400,387.036 390.887,388.962 388.962 C 390.887 387.036,392.400 385.192,392.400 384.771 C 392.400 384.524,392.940 383.817,393.600 383.200 C 394.260 382.583,394.800 381.791,394.800 381.440 C 394.800 381.088,394.980 380.800,395.200 380.800 C 395.420 380.800,395.600 380.440,395.600 380.000 C 395.600 379.560,395.780 379.200,396.000 379.200 C 396.220 379.200,396.400 378.840,396.400 378.400 C 396.400 377.960,396.580 377.600,396.800 377.600 C 397.020 377.600,397.200 377.240,397.200 376.800 C 397.200 376.360,397.380 376.000,397.600 376.000 C 397.820 376.000,398.000 375.561,398.000 375.024 C 398.000 374.487,398.180 373.936,398.400 373.800 C 398.620 373.664,398.800 373.149,398.800 372.656 C 398.800 372.163,399.025 371.535,399.300 371.260 C 399.698 370.862,399.800 336.057,399.800 199.913 C 399.800 63.592,399.699 29.033,399.300 28.900 C 399.025 28.808,398.800 28.219,398.800 27.590 C 398.800 26.962,398.620 26.336,398.400 26.200 C 398.180 26.064,398.000 25.513,398.000 24.976 C 398.000 24.439,397.820 24.000,397.600 24.000 C 397.380 24.000,397.200 23.640,397.200 23.200 C 397.200 22.760,397.020 22.400,396.800 22.400 C 396.580 22.400,396.400 22.040,396.400 21.600 C 396.400 21.160,396.220 20.800,396.000 20.800 C 395.780 20.800,395.600 20.440,395.600 20.000 C 395.600 19.560,395.420 19.200,395.200 19.200 C 394.980 19.200,394.800 18.912,394.800 18.560 C 394.800 18.209,394.260 17.417,393.600 16.800 C 392.940 16.183,392.400 15.476,392.400 15.229 C 392.400 14.244,385.756 7.600,384.771 7.600 C 384.524 7.600,383.817 7.060,383.200 6.400 C 382.583 5.740,381.791 5.200,381.440 5.200 C 381.088 5.200,380.800 5.020,380.800 4.800 C 380.800 4.580,380.440 4.400,380.000 4.400 C 379.560 4.400,379.200 4.220,379.200 4.000 C 379.200 3.780,378.840 3.600,378.400 3.600 C 377.960 3.600,377.600 3.420,377.600 3.200 C 377.600 2.980,377.240 2.800,376.800 2.800 C 376.360 2.800,376.000 2.620,376.000 2.400 C 376.000 2.180,375.561 2.000,375.024 2.000 C 374.487 2.000,373.936 1.820,373.800 1.600 C 373.664 1.380,373.149 1.200,372.656 1.200 C 372.163 1.200,371.535 0.975,371.260 0.700 C 370.787 0.227,34.721 -0.177,30.300 0.290 M120.179 93.006 C 141.134 95.753,156.286 105.836,164.720 122.647 C 168.459 130.101,171.610 143.820,171.139 150.600 L 171.000 152.600 158.200 152.600 L 145.400 152.600 145.314 150.600 C 144.875 140.329,141.595 131.417,136.081 125.510 C 134.478 123.792,128.897 119.600,128.214 119.600 C 128.091 119.600,127.228 119.261,126.296 118.847 C 117.875 115.110,104.309 114.646,95.400 117.790 C 83.207 122.094,76.666 130.193,74.052 144.224 C 73.105 149.303,73.446 252.741,74.425 257.657 C 77.673 273.958,88.376 283.203,105.800 284.759 C 121.745 286.182,135.024 279.794,140.938 267.856 C 144.723 260.214,145.296 255.967,145.130 236.800 L 145.000 221.800 123.900 221.696 L 102.800 221.593 102.800 210.004 L 102.800 198.415 103.700 198.198 C 104.195 198.078,119.540 198.029,137.800 198.090 L 171.000 198.200 171.131 224.600 C 171.263 251.435,171.083 256.257,169.714 262.400 C 169.395 263.830,168.994 265.720,168.821 266.600 C 168.511 268.180,168.248 269.036,167.592 270.600 C 167.407 271.040,167.047 272.081,166.792 272.914 C 162.989 285.337,150.407 297.793,135.800 303.595 C 120.978 309.483,96.004 309.215,81.800 303.017 C 81.140 302.729,79.700 302.097,78.600 301.614 C 73.899 299.547,68.747 295.953,63.556 291.118 C 57.576 285.548,52.319 275.831,49.644 265.400 C 47.640 257.587,47.599 256.295,47.596 200.400 C 47.592 145.997,47.661 143.346,49.263 136.400 C 49.694 134.530,50.108 132.730,50.184 132.400 C 51.491 126.683,56.614 117.078,61.287 111.580 C 63.254 109.266,71.115 102.400,71.797 102.400 C 71.939 102.400,72.808 101.893,73.728 101.273 C 74.648 100.654,76.030 99.863,76.800 99.516 C 77.570 99.170,79.190 98.441,80.400 97.897 C 90.689 93.271,106.951 91.272,120.179 93.006 M298.000 95.769 C 305.909 96.578,313.262 98.484,319.075 101.231 C 320.436 101.874,321.638 102.400,321.745 102.400 C 323.313 102.400,333.782 110.202,337.222 113.934 C 347.883 125.500,352.567 138.645,352.567 157.000 C 352.567 161.889,352.357 166.654,352.064 168.400 C 351.493 171.805,350.104 177.802,349.609 179.000 C 349.427 179.440,348.870 180.880,348.372 182.200 C 341.912 199.313,325.964 212.875,307.800 216.702 C 298.198 218.725,296.890 218.800,271.393 218.800 L 247.200 218.800 247.194 261.500 C 247.191 284.985,247.043 304.428,246.867 304.706 C 246.617 305.100,243.765 305.188,233.973 305.106 L 221.400 305.000 221.298 200.600 C 221.241 143.180,221.281 95.975,221.385 95.700 C 221.674 94.939,290.491 95.001,298.000 95.769 M247.698 118.706 C 247.300 118.979,247.217 126.960,247.298 157.225 L 247.400 195.400 270.600 195.400 C 295.048 195.400,296.151 195.333,302.000 193.487 C 317.260 188.672,325.998 175.378,325.999 156.973 C 326.002 136.830,316.340 123.936,297.800 119.337 C 295.058 118.657,248.624 118.072,247.698 118.706 " stroke="none" fill="#14849c" fill-rule="evenodd"></path></g></svg>
